<svg width="1010" height="186" viewBox="0 0 1010 186" fill="none" xmlns="http://www.w3.org/2000/svg">
<path d="M34.6872 185.76L29.8472 185.1H29.1872C28.6005 185.393 27.7939 185.54 26.7672 185.54C25.3005 185.54 23.7605 185.393 22.1472 185.1C20.3872 184.807 19.2139 184.587 18.6272 184.44L16.6472 183.78V184C16.2072 184 15.7672 183.853 15.3272 183.56C14.8872 183.413 14.5205 183.267 14.2272 183.12C12.9072 182.68 11.7339 182.24 10.7072 181.8C9.53385 181.36 8.36051 180.847 7.18718 180.26L4.32718 178.5C4.03385 177.767 3.30052 176.74 2.12718 175.42C0.807183 174.1 0.147182 173.147 0.147182 172.56L1.24718 171.68L1.68718 173C2.42051 173.733 3.08052 174.467 3.66718 175.2C4.10718 176.08 4.76718 176.887 5.64718 177.62C7.40718 178.94 9.60718 179.6 12.2472 179.6C14.8872 179.6 17.3805 179.673 19.7272 179.82L23.6872 180.48L27.8672 179.38L28.5272 179.82C28.8205 179.673 29.2605 179.6 29.8472 179.6C30.2872 179.6 30.8005 179.6 31.3872 179.6C33.0005 179.6 33.8072 179.453 33.8072 179.16C34.3939 179.16 34.6139 179.307 34.4672 179.6C36.5205 178.867 38.7205 178.28 41.0672 177.84C43.2672 177.547 45.3939 177.107 47.4472 176.52C48.6205 176.227 49.7205 175.86 50.7472 175.42C51.7739 174.98 52.8739 174.76 54.0472 174.76C55.2205 173.587 56.9805 172.853 59.3272 172.56C61.5272 172.413 63.4339 172.047 65.0472 171.46C70.3272 169.26 75.6072 166.987 80.8872 164.64C86.0205 162.293 91.1539 159.947 96.2872 157.6L100.907 154.74C102.521 153.86 104.207 153.053 105.967 152.32C107.874 151.587 109.634 150.707 111.247 149.68L115.207 146.6C115.501 146.307 115.794 146.233 116.087 146.38C116.381 146.38 116.601 146.307 116.747 146.16L119.167 144.18C119.461 143.74 119.607 143.52 119.607 143.52C119.754 143.52 120.121 143.593 120.707 143.74L142.707 127.24L144.467 125.04C145.641 123.867 146.814 122.84 147.987 121.96C149.307 120.933 150.554 119.907 151.727 118.88C152.607 118.147 154.147 116.753 156.347 114.7C158.694 112.647 160.894 110.74 162.947 108.98C165.147 107.22 166.321 106.34 166.467 106.34L174.607 99.96C175.634 99.2267 176.294 98.42 176.587 97.54C177.027 96.66 177.761 95.9267 178.787 95.34C179.227 95.0467 179.594 94.68 179.887 94.24C180.181 93.6533 180.401 93.2867 180.547 93.14C182.161 91.9667 184.141 90.3533 186.487 88.3C188.981 86.2467 191.107 84.6333 192.867 83.46C195.947 80.9667 198.147 78.9867 199.467 77.52C200.934 75.9067 203.281 74 206.507 71.8C206.947 71.5067 208.047 70.6267 209.807 69.16C211.567 67.5467 213.474 65.86 215.527 64.1C217.581 62.1933 219.414 60.58 221.027 59.26C222.787 57.7933 223.741 57.06 223.887 57.06C224.181 56.62 225.061 55.6667 226.527 54.2C228.141 52.5867 229.827 50.9 231.587 49.14C233.494 47.2333 235.181 45.5467 236.647 44.08C238.261 42.4667 239.287 41.44 239.727 41C241.341 39.5333 242.661 38.0667 243.687 36.6C244.714 35.1333 245.887 33.6667 247.207 32.2C247.647 31.76 248.307 31.0267 249.187 30C250.214 28.8267 251.314 27.6533 252.487 26.48C250.581 26.6267 249.187 26.26 248.307 25.38C247.427 24.3533 246.621 23.7667 245.887 23.62C245.007 24.5 244.201 24.8667 243.467 24.72L243.687 22.96L242.807 22.74L242.587 24.06C242.441 24.06 242.221 23.9867 241.927 23.84C241.781 23.6933 241.561 23.62 241.267 23.62L239.947 22.74L239.287 23.4L237.527 23.18L237.747 21.86H237.527V22.08C236.941 22.3733 236.354 22.5933 235.767 22.74C235.327 22.74 234.814 22.74 234.227 22.74C232.321 22.74 230.487 22.52 228.727 22.08L228.507 20.98C228.361 21.1267 228.141 21.2 227.847 21.2C227.554 21.2 227.261 21.2 226.967 21.2L226.747 20.98L226.307 21.86C224.987 21.5667 223.961 21.42 223.227 21.42C222.641 21.42 221.614 21.42 220.147 21.42C218.387 21.42 216.627 21.2 214.867 20.76C213.107 20.32 211.347 20.1 209.587 20.1C208.854 20.1 208.047 20.0267 207.167 19.88C206.434 19.5867 205.627 19.3667 204.747 19.22C204.454 19.66 203.794 19.88 202.767 19.88C201.887 19.88 200.861 19.7333 199.687 19.44L199.247 20.32H198.587C198.147 20.32 197.194 20.3933 195.727 20.54C194.261 20.54 192.867 20.6133 191.547 20.76C190.227 20.9067 189.494 21.2 189.347 21.64C188.614 21.64 187.881 21.7133 187.147 21.86C186.414 21.86 185.681 21.7867 184.947 21.64C184.214 22.52 182.381 23.18 179.447 23.62C176.661 24.06 173.947 24.5 171.307 24.94C168.814 25.2333 167.494 25.7467 167.347 26.48C159.574 27.9467 151.947 30.44 144.467 33.96C136.987 37.48 130.167 41.9533 124.007 47.38C117.994 52.8067 113.154 59.1133 109.487 66.3C105.967 73.34 104.207 81.1133 104.207 89.62C104.207 91.5267 104.647 94.5333 105.527 98.64C106.554 102.747 108.167 106.267 110.367 109.2C110.514 109.347 110.294 109.347 109.707 109.2C109.121 109.053 108.681 108.98 108.387 108.98C107.947 108.687 107.214 107.88 106.187 106.56C105.307 105.24 104.427 103.993 103.547 102.82C102.667 101.5 101.934 100.84 101.347 100.84L100.687 101.28C99.2205 100.4 98.3405 99.08 98.0472 97.32C97.7539 95.4133 97.6072 93.7267 97.6072 92.26C97.6072 86.8333 98.6339 81.4067 100.687 75.98C102.741 70.4067 105.381 65.1267 108.607 60.14C111.834 55.0067 115.281 50.6067 118.947 46.94C120.561 45.3267 122.321 43.86 124.227 42.54C126.134 41.0733 127.967 39.6067 129.727 38.14C130.021 37.9933 130.754 37.5533 131.927 36.82C133.247 35.94 134.494 35.1333 135.667 34.4C136.987 33.52 137.647 33.0067 137.647 32.86C139.261 32.2733 141.681 31.1733 144.907 29.56C148.134 27.8 151.434 26.1867 154.807 24.72C158.181 23.2533 160.821 22.6667 162.727 22.96L162.947 22.74C163.534 21.86 165.587 20.98 169.107 20.1C172.627 19.22 176.587 18.4133 180.987 17.68C185.534 16.9467 189.714 16.4333 193.527 16.14C197.341 15.7 199.907 15.5533 201.227 15.7V15.48C201.667 15.1867 202.327 15.04 203.207 15.04C204.087 15.04 205.114 15.1867 206.287 15.48C207.167 15.04 208.121 14.82 209.147 14.82C209.881 14.82 210.541 14.8933 211.127 15.04C211.861 15.1867 212.521 15.26 213.107 15.26C213.401 15.1133 213.841 15.04 214.427 15.04C215.307 15.04 216.261 15.1867 217.287 15.48C218.314 15.6267 219.121 15.7733 219.707 15.92C220.001 15.6267 220.514 15.48 221.247 15.48C221.541 15.48 221.981 15.5533 222.567 15.7C223.154 15.8467 223.667 15.9933 224.107 16.14C224.694 15.8467 225.134 15.7 225.427 15.7C226.307 15.7 227.187 15.8467 228.067 16.14C228.947 16.4333 229.754 16.6533 230.487 16.8L230.927 15.92C232.687 16.2133 234.961 16.58 237.747 17.02C240.681 17.3133 243.614 17.68 246.547 18.12C249.481 18.4133 251.901 18.8533 253.807 19.44C254.394 19.44 255.127 19.5867 256.007 19.88L256.227 20.1C256.814 19.8067 257.327 19.66 257.767 19.66H259.087C260.554 18.1933 261.801 17.3867 262.827 17.24C265.321 16.5067 267.154 16.14 268.327 16.14C270.087 16.14 270.967 16.7267 270.967 17.9C270.967 18.1933 270.821 18.78 270.527 19.66C272.434 19.8067 274.341 19.88 276.247 19.88C278.301 19.88 279.254 20.0267 279.107 20.32C279.107 20.32 279.621 20.4667 280.647 20.76C281.674 20.9067 282.701 21.2733 283.727 21.86C284.754 22.4467 285.267 23.3267 285.267 24.5C285.267 25.0867 284.974 25.8933 284.387 26.92C283.947 27.8 282.994 28.8267 281.527 30C281.234 30.2933 280.647 30.44 279.767 30.44C279.181 30.44 278.594 30.3667 278.007 30.22C277.421 29.9267 276.761 29.7067 276.027 29.56C274.561 30.5867 273.534 31.54 272.947 32.42L272.727 32.64C273.021 34.1067 272.727 35.5733 271.847 37.04C271.114 38.5067 270.161 39.7533 268.987 40.78C268.254 41.22 267.814 41.88 267.667 42.76H267.447L265.907 42.98C260.774 49.8733 255.567 56.9867 250.287 64.32C245.154 71.5067 240.534 78.18 236.427 84.34C232.467 90.3533 229.461 95.1933 227.407 98.86C227.261 99.3 226.821 99.8867 226.087 100.62C225.501 101.353 225.207 101.94 225.207 102.38L222.787 104.8L224.107 107C223.961 108.027 223.447 108.907 222.567 109.64C221.687 110.373 221.321 111.327 221.467 112.5C220.881 112.647 220.221 113.747 219.487 115.8C218.901 117.853 218.241 119.833 217.507 121.74C216.774 123.647 216.114 124.6 215.527 124.6L215.747 124.82C215.894 124.967 215.967 125.26 215.967 125.7C215.967 126.433 215.601 127.24 214.867 128.12C214.134 128.853 213.401 129.293 212.667 129.44C212.961 130.467 212.741 131.713 212.007 133.18C211.274 134.5 210.541 135.527 209.807 136.26C209.661 138.753 210.174 140 211.347 140C212.521 140 214.281 139.047 216.627 137.14L225.867 129.22C229.974 125.553 235.181 120.933 241.487 115.36C247.941 109.787 254.761 103.7 261.947 97.1C269.134 90.3533 276.174 83.5333 283.067 76.64C289.961 69.6 295.974 62.8533 301.107 56.4C301.401 55.8133 301.914 54.5667 302.647 52.66C303.527 50.6067 304.187 49.2867 304.627 48.7C307.561 44.4467 309.761 40.56 311.227 37.04C312.841 33.52 315.334 29.7067 318.707 25.6C319.881 24.1333 321.201 22.4467 322.667 20.54C324.281 18.4867 325.821 16.8733 327.287 15.7C327.874 15.1133 328.534 14.82 329.267 14.82C330.001 14.82 330.661 14.9667 331.247 15.26C331.981 15.5533 332.787 15.6267 333.667 15.48C334.841 15.1867 336.087 15.92 337.407 17.68C338.874 19.44 340.121 20.8333 341.147 21.86C342.614 23.3267 344.814 25.0867 347.747 27.14C350.681 29.1933 352.441 31.3933 353.027 33.74C353.174 34.3267 353.247 35.1333 353.247 36.16C353.247 38.9467 352.441 41.1467 350.827 42.76C349.507 44.52 348.407 45.4 347.527 45.4C347.087 45.4 346.867 44.8133 346.867 43.64C346.867 42.4667 346.941 41.0733 347.087 39.46C347.381 37.7 347.527 36.0867 347.527 34.62C347.527 33.3 347.454 32.3467 347.307 31.76C347.014 30.5867 346.354 29.78 345.327 29.34C344.301 28.7533 343.347 28.46 342.467 28.46C340.561 28.46 339.167 29.1933 338.287 30.66C337.554 32.1267 336.674 32.9333 335.647 33.08L335.427 33.74C334.841 33.8867 334.327 34.4 333.887 35.28C333.594 36.16 333.081 36.6733 332.347 36.82C332.201 37.4067 331.394 38.5067 329.927 40.12C328.607 41.5867 327.727 42.6867 327.287 43.42C324.501 46.6467 321.861 50.1667 319.367 53.98C319.074 54.42 318.781 54.9333 318.487 55.52C318.341 56.1067 318.121 56.62 317.827 57.06L314.747 60.58C314.747 60.7267 314.454 61.3867 313.867 62.56C313.281 63.5867 312.694 64.6867 312.107 65.86C311.521 66.8867 311.227 67.4733 311.227 67.62C310.787 68.2067 309.907 69.9667 308.587 72.9C307.414 75.8333 306.167 79.2067 304.847 83.02C303.527 86.6867 302.354 90.06 301.327 93.14C300.447 96.0733 300.007 97.8333 300.007 98.42C299.421 99.3 298.834 100.693 298.247 102.6C297.807 104.507 297.441 106.12 297.147 107.44C295.094 115.507 293.334 123.133 291.867 130.32C290.401 137.36 289.814 145.647 290.107 155.18C290.107 157.38 290.327 159.58 290.767 161.78C291.207 163.54 291.721 164.713 292.307 165.3C292.894 165.887 293.554 166.18 294.287 166.18C297.661 166.18 300.447 165.007 302.647 162.66C304.847 160.46 306.901 157.747 308.807 154.52C309.247 153.64 309.761 152.76 310.347 151.88C310.934 151 311.521 150.12 312.107 149.24L313.427 146.82C313.867 146.233 314.014 146.087 313.867 146.38C313.867 146.673 314.014 146.38 314.307 145.5L314.527 145.72V145.5C314.967 145.06 315.481 144.18 316.067 142.86C316.654 141.393 317.241 140.073 317.827 138.9C318.561 137.58 319.001 136.92 319.147 136.92C319.147 136.627 319.147 136.26 319.147 135.82C319.294 135.233 319.441 134.867 319.587 134.72C319.881 134.28 320.174 133.473 320.467 132.3C320.907 130.98 321.347 130.247 321.787 130.1L322.007 130.32C322.007 131.493 321.641 133.327 320.907 135.82C320.174 138.167 319.441 140.367 318.707 142.42C317.974 144.327 317.607 145.353 317.607 145.5C317.461 145.647 317.021 146.453 316.287 147.92C315.701 149.387 315.041 150.927 314.307 152.54C313.721 154.153 313.281 155.18 312.987 155.62C312.547 156.793 311.447 158.7 309.687 161.34C308.074 164.127 306.314 166.693 304.407 169.04C302.647 171.387 301.327 172.707 300.447 173C298.834 173.147 297.367 172.633 296.047 171.46C294.874 170.433 294.067 169.92 293.627 169.92C293.187 168.453 292.381 167.427 291.207 166.84C290.181 166.253 289.227 165.593 288.347 164.86C287.907 164.567 287.467 164.127 287.027 163.54C286.734 163.1 286.441 162.587 286.147 162C284.681 160.387 283.287 158.92 281.967 157.6C280.794 156.28 279.841 154.373 279.107 151.88C278.521 149.24 278.154 146.307 278.007 143.08C277.861 139.707 277.861 136.773 278.007 134.28C278.007 133.693 278.081 132.887 278.227 131.86C278.521 130.687 278.594 129.88 278.447 129.44H278.667C278.814 130.467 278.814 131.42 278.667 132.3C278.521 133.033 278.521 133.987 278.667 135.16H278.887V134.94C279.181 134.353 279.547 133.033 279.987 130.98C280.427 128.78 280.574 127.387 280.427 126.8C280.427 126.947 280.354 127.02 280.207 127.02C280.207 126.873 280.207 126.8 280.207 126.8H279.987C279.987 126.947 279.987 127.167 279.987 127.46C280.134 127.753 280.134 128.047 279.987 128.34C279.841 128.047 279.694 127.827 279.547 127.68C279.547 127.387 279.474 127.167 279.327 127.02C279.327 126.727 279.254 126.507 279.107 126.36C279.107 126.213 279.107 126.067 279.107 125.92C279.107 125.187 279.181 124.527 279.327 123.94C279.621 123.207 279.767 122.547 279.767 121.96L279.547 120.42C279.987 119.54 280.281 118.293 280.427 116.68C280.574 114.92 280.794 113.527 281.087 112.5C281.234 112.06 281.381 111.693 281.527 111.4C281.821 111.107 282.041 110.667 282.187 110.08C282.334 109.787 282.407 109.347 282.407 108.76C282.407 108.173 282.407 107.66 282.407 107.22C282.407 106.633 282.481 106.12 282.627 105.68C282.921 105.093 283.287 104.727 283.727 104.58C284.314 104.287 284.461 103.627 284.167 102.6L283.947 102.82L283.727 101.94C284.607 99.1533 285.414 96.2933 286.147 93.36C286.881 90.4267 287.761 87.64 288.787 85C289.081 84.2667 289.374 83.68 289.667 83.24C289.961 82.6533 290.181 82.0667 290.327 81.48L292.527 76.2C285.927 82.6533 278.961 89.1067 271.627 95.56C264.294 102.013 257.401 107.953 250.947 113.38C244.641 118.66 239.507 123.06 235.547 126.58C234.374 127.607 232.761 129.073 230.707 130.98C228.801 132.74 227.187 134.133 225.867 135.16L215.307 143.74L208.927 149.02C207.461 150.193 206.654 150.853 206.507 151C206.507 151.293 205.994 151.88 204.967 152.76L202.767 155.4V154.96L201.447 156.72C200.567 157.307 198.881 158.04 196.387 158.92C193.894 159.947 191.841 160.24 190.227 159.8C188.027 159.213 186.487 158.113 185.607 156.5C184.874 155.033 184.361 153.347 184.067 151.44L184.727 149.68C185.021 148.507 185.241 147.993 185.387 148.14C185.681 148.287 186.047 147.847 186.487 146.82C194.554 128.047 204.381 109.053 215.967 89.84C227.554 70.6267 240.314 52.7333 254.247 36.16C251.461 38.36 247.721 41.5867 243.027 45.84L205.187 79.72C204.601 80.3067 203.867 80.82 202.987 81.26C202.254 81.5533 201.667 81.92 201.227 82.36L191.767 90.94L179.887 101.72C177.687 103.627 176.074 105.02 175.047 105.9C174.167 106.78 172.481 108.173 169.987 110.08C168.961 110.667 167.787 111.693 166.467 113.16C165.294 114.48 164.194 115.507 163.167 116.24C161.847 117.267 161.334 117.853 161.627 118C161.921 118 161.334 118.513 159.867 119.54L156.567 121.74L152.827 124.82L150.407 126.58L143.807 131.2L133.247 138.46L111.687 153.86L104.427 158.92C101.494 160.973 98.4139 162.88 95.1872 164.64C92.1072 166.547 88.9539 168.38 85.7272 170.14C84.9939 170.433 83.8205 171.093 82.2072 172.12C80.4472 173.147 79.2005 173.66 78.4672 173.66L73.8472 176.08C71.7939 176.52 70.1805 177.033 69.0072 177.62L61.9672 179.82C60.9405 180.113 59.9872 180.407 59.1072 180.7C58.2272 181.14 57.2005 181.36 56.0272 181.36C55.4405 181.653 53.9739 182.02 51.6272 182.46C49.2805 183.047 47.7405 183.34 47.0072 183.34L38.4272 185.54C37.8405 185.687 37.2539 185.687 36.6672 185.54C35.9339 185.54 35.2739 185.613 34.6872 185.76ZM350.839 163.76C348.493 163.76 346.586 163.027 345.119 161.56C343.799 160.24 342.773 159.58 342.039 159.58C341.893 157.967 341.086 156.793 339.619 156.06C338.299 155.327 337.126 154.52 336.099 153.64C335.513 153.2 334.999 152.687 334.559 152.1C334.266 151.513 333.899 150.927 333.459 150.34C331.993 148.287 330.893 146.747 330.159 145.72C329.426 144.693 329.059 142.86 329.059 140.22C329.059 137.433 329.573 134.427 330.599 131.2C331.626 127.827 332.726 124.967 333.899 122.62C334.193 122.033 334.633 121.227 335.219 120.2C335.953 119.027 336.393 118.22 336.539 117.78H336.759C336.613 118.807 336.246 119.76 335.659 120.64C335.073 121.373 334.779 122.253 334.779 123.28C335.366 122.84 336.393 121.593 337.859 119.54C339.326 117.487 340.133 116.167 340.279 115.58C340.133 115.58 340.059 115.58 340.059 115.58C340.206 115.433 340.206 115.36 340.059 115.36H339.619C339.473 115.507 339.399 115.727 339.399 116.02C339.399 116.313 339.253 116.607 338.959 116.9C338.666 116.313 338.519 115.873 338.519 115.58C338.519 114.553 338.886 113.673 339.619 112.94C340.353 112.06 340.866 111.253 341.159 110.52V108.98C342.333 108.247 343.286 107.073 344.019 105.46C344.753 103.7 345.486 102.307 346.219 101.28C346.659 100.84 347.099 100.547 347.539 100.4C348.126 100.107 348.639 99.6667 349.079 99.08C349.519 98.3467 349.813 97.6133 349.959 96.88C350.106 96 350.546 95.2667 351.279 94.68C351.866 94.24 352.599 93.9467 353.479 93.8C354.359 93.6533 354.799 93.0667 354.799 92.04L354.139 92.26L354.359 91.16C356.706 88.52 358.906 85.8067 360.959 83.02C363.159 80.2333 365.433 77.5933 367.779 75.1C368.366 74.5133 368.953 74 369.539 73.56C370.273 73.12 370.933 72.6067 371.519 72.02C372.986 70.7 374.453 69.38 375.919 68.06C377.386 66.5933 378.853 65.2 380.319 63.88C382.959 61.3867 385.599 58.82 388.239 56.18C390.879 53.3933 393.666 51.0467 396.599 49.14C397.333 48.5533 398.066 48.04 398.799 47.6C399.679 47.16 400.486 46.72 401.219 46.28C404.153 44.2267 407.086 42.2467 410.019 40.34C412.953 38.4333 415.886 36.5267 418.819 34.62C420.873 33.4467 422.999 32.42 425.199 31.54C427.399 30.5133 429.526 29.4867 431.579 28.46C433.926 27.2867 436.346 26.26 438.839 25.38C441.333 24.3533 443.826 23.4 446.319 22.52C448.373 21.7867 450.793 20.9067 453.579 19.88C456.513 18.8533 459.006 18.34 461.059 18.34C462.819 18.34 464.286 18.6333 465.459 19.22C466.633 19.8067 467.806 20.6867 468.979 21.86C470.153 22.8867 471.766 24.2067 473.819 25.82C476.019 27.4333 477.999 29.12 479.759 30.88C481.519 32.64 482.399 34.3267 482.399 35.94C482.399 37.8467 481.666 39.5333 480.199 41C478.879 42.4667 477.486 43.64 476.019 44.52C476.166 45.84 476.093 47.3067 475.799 48.92C475.653 50.3867 474.993 51.8533 473.819 53.32C472.646 57.72 470.226 62.4867 466.559 67.62C463.039 72.7533 458.933 77.8867 454.239 83.02C449.693 88.0067 445.293 92.5533 441.039 96.66C436.786 100.767 433.413 104.067 430.919 106.56C418.013 119.467 406.719 129.733 397.039 137.36C387.506 144.987 379.513 150.707 373.059 154.52C366.606 158.333 361.546 160.827 357.879 162C354.213 163.173 351.866 163.76 350.839 163.76ZM347.539 156.06C349.006 156.06 351.719 155.327 355.679 153.86C359.639 152.393 364.259 150.267 369.539 147.48C374.819 144.693 380.173 141.393 385.599 137.58C391.759 133.327 397.553 128.853 402.979 124.16C408.406 119.32 413.099 115.14 417.059 111.62C421.019 107.953 423.586 105.68 424.759 104.8C428.719 102.013 432.606 98.64 436.419 94.68C440.233 90.5733 443.679 86.54 446.759 82.58C449.986 78.4733 452.553 74.9533 454.459 72.02C456.513 68.94 457.539 67.0333 457.539 66.3C457.686 64.3933 457.833 62.7067 457.979 61.24C458.126 59.6267 458.273 58.16 458.419 56.84C456.659 57.5733 455.339 57.94 454.459 57.94V58.38C453.433 59.1133 452.186 60.0667 450.719 61.24C449.399 62.4133 448.153 63.1467 446.979 63.44C446.686 63.5867 446.319 63.66 445.879 63.66L444.779 65.2V65.42C444.046 65.5667 443.386 65.86 442.799 66.3C442.213 66.5933 441.553 66.74 440.819 66.74C440.379 67.4733 439.719 67.84 438.839 67.84C438.693 68.1333 438.399 68.4267 437.959 68.72C437.519 68.8667 437.226 69.16 437.079 69.6H436.859L436.199 69.38C435.759 69.9667 435.246 70.26 434.659 70.26C434.073 70.26 433.413 70.4067 432.679 70.7C432.533 70.8467 432.093 71.14 431.359 71.58C430.626 72.02 430.113 72.24 429.819 72.24H429.599L429.819 71.8C433.339 69.6 436.713 67.2533 439.939 64.76C443.313 62.12 446.686 59.6267 450.059 57.28C452.113 55.96 455.339 53.54 459.739 50.02C460.766 45.9133 461.793 43.4933 462.819 42.76C463.846 41.88 466.119 41.2933 469.639 41C471.106 39.3867 472.279 37.92 473.159 36.6C474.186 35.1333 474.699 33.8867 474.699 32.86C474.699 31.3933 473.893 30.3667 472.279 29.78C470.666 29.0467 469.273 28.68 468.099 28.68C465.313 28.68 463.113 29.2667 461.499 30.44C459.886 31.6133 458.273 32.2 456.659 32.2L456.439 32.86C455.266 32.86 454.239 33.3 453.359 34.18C452.626 34.9133 451.673 35.28 450.499 35.28C450.206 35.5733 449.326 36.0867 447.859 36.82C446.539 37.5533 445.146 38.2867 443.679 39.02C442.213 39.7533 441.113 40.34 440.379 40.78C437.886 42.2467 435.319 43.7133 432.679 45.18C430.039 46.6467 427.473 48.26 424.979 50.02C424.393 50.3133 423.806 50.7533 423.219 51.34C422.633 51.78 422.046 52.22 421.459 52.66L415.739 55.74C415.593 55.74 414.859 56.2533 413.539 57.28C412.219 58.3067 410.899 59.3333 409.579 60.36C408.406 61.3867 407.746 61.9 407.599 61.9C406.866 62.34 405.399 63.44 403.199 65.2C400.999 66.96 398.433 69.0867 395.499 71.58C392.713 74.0733 389.926 76.5667 387.139 79.06C384.499 81.5533 382.226 83.7533 380.319 85.66C378.559 87.5667 377.679 88.74 377.679 89.18C376.213 89.9133 374.819 91.2333 373.499 93.14C372.179 95.0467 371.006 96.5867 369.979 97.76C363.966 105.387 358.539 112.647 353.699 119.54C348.859 126.287 344.973 134.5 342.039 144.18C341.746 145.207 341.453 146.307 341.159 147.48C340.866 148.507 340.719 149.607 340.719 150.78C340.719 153.42 341.379 154.96 342.699 155.4C344.019 155.84 345.633 156.06 347.539 156.06ZM551.381 158.48C549.915 158.627 548.741 158.773 547.861 158.92C547.128 159.067 546.395 159.14 545.661 159.14C544.341 159.14 542.288 158.48 539.501 157.16C539.061 156.867 538.621 156.5 538.181 156.06C537.888 155.767 537.521 155.4 537.081 154.96C535.615 153.787 534.295 152.027 533.121 149.68C531.948 147.187 531.215 145.28 530.921 143.96V143.3C530.921 143.007 530.995 142.42 531.141 141.54C531.288 140.513 531.581 139.12 532.021 137.36C532.168 136.773 532.461 135.82 532.901 134.5C533.488 133.18 533.781 132.3 533.781 131.86H534.001C534.001 132.007 533.855 132.667 533.561 133.84C533.268 134.867 533.048 135.82 532.901 136.7C532.901 137.58 533.048 137.947 533.341 137.8C533.341 137.653 533.635 136.92 534.221 135.6C534.955 134.28 535.688 132.887 536.421 131.42C537.155 129.807 537.448 128.707 537.301 128.12C537.155 128.267 537.008 128.34 536.861 128.34C536.861 128.193 536.861 128.12 536.861 128.12L536.421 128.34C536.421 128.487 536.421 128.707 536.421 129C536.568 129.293 536.495 129.587 536.201 129.88C535.761 129.733 535.468 129.44 535.321 129V128.78C535.321 127.9 535.541 126.947 535.981 125.92C536.568 124.893 536.935 123.94 537.081 123.06L536.861 121.74C537.888 120.567 538.621 119.1 539.061 117.34C539.501 115.433 540.015 113.893 540.601 112.72C540.895 111.987 541.335 111.4 541.921 110.96C542.508 110.52 542.875 110.007 543.021 109.42C543.315 108.54 543.461 107.733 543.461 107C543.608 106.12 543.975 105.24 544.561 104.36C545.148 103.627 545.881 103.04 546.761 102.6C547.641 102.013 547.935 101.28 547.641 100.4L546.981 100.84V99.74C548.301 97.54 548.961 96.22 548.961 95.78C548.961 95.34 549.035 94.9 549.181 94.46C549.328 94.02 550.061 92.7 551.381 90.5L554.681 86.1C555.561 84.78 556.588 82.9467 557.761 80.6C559.081 78.1067 560.401 75.6867 561.721 73.34C563.041 70.8467 564.068 69.0133 564.801 67.84C567.295 64.4667 570.228 60.6533 573.601 56.4C576.975 52.1467 580.275 47.5267 583.501 42.54C585.995 38.7267 588.268 35.72 590.321 33.52C592.375 31.1733 594.428 28.9733 596.481 26.92C598.681 24.8667 601.248 22.3733 604.181 19.44V19.22C603.008 19.0733 601.395 18.9267 599.341 18.78C597.435 18.4867 595.601 18.2667 593.841 18.12C592.228 17.9733 591.201 17.9 590.761 17.9C588.855 17.9 587.095 17.68 585.481 17.24C583.868 16.6533 582.181 16.36 580.421 16.36C579.688 16.36 578.955 16.2867 578.221 16.14C577.488 15.9933 576.755 15.8467 576.021 15.7C575.435 16.14 574.628 16.36 573.601 16.36C572.868 16.36 571.915 16.2133 570.741 15.92L570.081 16.8H569.421C568.981 16.6533 567.955 16.6533 566.341 16.8C564.875 16.8 563.408 16.9467 561.941 17.24C560.621 17.3867 559.815 17.68 559.521 18.12C558.935 17.9733 558.275 17.9733 557.541 18.12C556.808 18.2667 556.075 18.2667 555.341 18.12C554.315 19 552.261 19.66 549.181 20.1C546.248 20.3933 543.388 20.76 540.601 21.2C537.961 21.4933 536.421 22.0067 535.981 22.74C527.768 24.2067 519.188 26.92 510.241 30.88C501.295 34.6933 492.641 39.5333 484.281 45.4C476.068 51.2667 468.808 57.94 462.501 65.42C456.341 72.9 451.795 80.8933 448.861 89.4C448.275 91.3067 447.908 93.2867 447.761 95.34C447.761 97.3933 447.615 98.9333 447.321 99.96C447.028 100.253 446.808 100.4 446.661 100.4C446.075 100.107 445.781 99.52 445.781 98.64C445.781 97.6133 445.415 97.1 444.681 97.1L443.801 97.76C443.068 97.1733 442.701 96.1467 442.701 94.68C442.701 93.6533 442.848 92.6267 443.141 91.6C443.435 90.5733 443.655 89.62 443.801 88.74C445.708 83.3133 448.568 77.8867 452.381 72.46C456.341 66.8867 460.815 61.6067 465.801 56.62C470.788 51.4867 475.701 47.0133 480.541 43.2C482.741 41.5867 485.015 40.12 487.361 38.8C489.855 37.48 492.275 36.0867 494.621 34.62C494.915 34.4733 495.795 34.0333 497.261 33.3C498.728 32.42 500.195 31.6133 501.661 30.88C503.128 30 503.935 29.4867 504.081 29.34C505.401 28.9 507.308 28.0933 509.801 26.92C512.441 25.7467 515.228 24.5733 518.161 23.4C521.095 22.08 523.881 21.0533 526.521 20.32C529.161 19.44 531.215 19.0733 532.681 19.22H532.901C533.781 18.34 536.128 17.46 539.941 16.58C543.755 15.7 548.008 14.8933 552.701 14.16C557.395 13.4267 561.721 12.9133 565.681 12.62C569.641 12.18 572.281 12.0333 573.601 12.18V11.96C574.188 11.6667 574.995 11.52 576.021 11.52C576.461 11.52 576.901 11.52 577.341 11.52C577.781 11.52 578.221 11.5933 578.661 11.74C579.248 11.5933 579.761 11.52 580.201 11.52C580.788 11.3733 581.301 11.3 581.741 11.3C582.475 11.3 583.135 11.3733 583.721 11.52C584.455 11.52 585.115 11.5933 585.701 11.74C586.288 11.4467 586.875 11.3 587.461 11.3C588.195 11.3 588.855 11.3 589.441 11.3C589.881 11.3 590.321 11.3 590.761 11.3C591.348 11.3 591.788 11.3733 592.081 11.52C592.815 11.08 593.401 10.86 593.841 10.86C594.281 10.86 594.721 10.9333 595.161 11.08C595.748 11.2267 596.188 11.3733 596.481 11.52C596.921 11.3733 597.435 11.3 598.021 11.3H599.561C600.001 10.86 600.295 10.64 600.441 10.64C600.881 10.64 601.248 10.86 601.541 11.3C601.981 11.74 602.348 11.8867 602.641 11.74C604.255 11.1533 605.501 10.86 606.381 10.86C607.408 10.86 608.141 11.08 608.581 11.52C609.168 11.96 610.195 12.18 611.661 12.18C612.835 12.18 614.448 12.4733 616.501 13.06C618.701 13.5 620.535 14.0133 622.001 14.6C622.441 14.6 622.808 14.6733 623.101 14.82C623.541 14.82 623.835 14.82 623.981 14.82C624.715 14.82 625.081 14.9667 625.081 15.26C625.521 15.7 625.521 16.14 625.081 16.58C624.055 17.6067 622.881 18.4133 621.561 19C620.241 19.44 618.995 20.1 617.821 20.98L616.061 22.3V23.4C616.061 24.4267 615.841 25.16 615.401 25.6L612.101 29.34C610.781 30.8067 608.435 33.5933 605.061 37.7C601.835 41.8067 598.535 46.4267 595.161 51.56C594.135 52.7333 592.228 55.2267 589.441 59.04C586.655 62.7067 583.721 66.8133 580.641 71.36C577.561 75.9067 574.921 79.94 572.721 83.46C572.135 84.1933 571.181 85.5867 569.861 87.64C568.541 89.6933 567.148 91.9667 565.681 94.46C564.361 96.8067 563.115 99.0067 561.941 101.06C560.768 103.113 560.035 104.58 559.741 105.46C555.488 114.993 551.675 122.913 548.301 129.22C544.928 135.38 542.948 141.247 542.361 146.82V150.56C543.095 151.88 544.121 152.54 545.441 152.54C546.321 152.54 547.201 152.32 548.081 151.88C549.108 151.44 549.988 151 550.721 150.56C551.015 150.12 551.381 149.753 551.821 149.46C552.261 149.02 552.555 148.653 552.701 148.36C553.875 147.04 555.928 144.62 558.861 141.1C561.795 137.58 564.948 133.767 568.321 129.66C571.695 125.407 574.775 121.52 577.561 118C580.348 114.48 582.181 112.06 583.061 110.74C584.968 108.833 586.215 107.367 586.801 106.34C587.535 105.167 588.121 104.067 588.561 103.04C589.148 102.013 590.028 100.84 591.201 99.52C591.348 99.3733 591.788 98.7133 592.521 97.54C593.255 96.3667 593.988 95.1933 594.721 94.02C595.455 92.7 595.895 92.04 596.041 92.04C597.655 89.5467 599.415 87.1267 601.321 84.78C603.081 82.58 604.915 80.0867 606.821 77.3C608.728 74.5133 610.635 72.0933 612.541 70.04C612.835 69.6 613.495 68.6467 614.521 67.18C615.695 65.5667 616.795 64.0267 617.821 62.56C618.995 61.0933 619.655 60.36 619.801 60.36C620.095 59.6267 620.681 58.82 621.561 57.94C622.588 57.06 623.395 56.3267 623.981 55.74L629.701 48.48C630.581 47.3067 631.461 46.28 632.341 45.4C633.368 44.52 634.321 43.5667 635.201 42.54C637.548 39.9 639.601 37.7 641.361 35.94C643.268 34.0333 645.541 31.9067 648.181 29.56C648.768 28.9733 649.795 27.8733 651.261 26.26C652.875 24.5 654.048 23.5467 654.781 23.4L658.521 20.76L662.701 17.68C663.728 16.9467 664.755 16.2867 665.781 15.7C666.808 15.1133 667.908 14.5267 669.081 13.94C669.815 13.5 670.988 12.9867 672.601 12.4C674.215 11.8133 675.608 11.4467 676.781 11.3C677.221 10.86 677.955 10.3467 678.981 9.76C680.155 9.17333 681.108 8.80666 681.841 8.66L689.541 4.7C690.128 4.40666 690.715 4.25999 691.301 4.25999C692.035 4.11332 692.621 3.89333 693.061 3.6L697.901 2.93999L698.781 2.71999C699.221 2.27999 700.175 1.98666 701.641 1.83999C703.108 1.54666 704.575 1.32666 706.041 1.17999C707.655 1.03332 708.755 0.959991 709.341 0.959991H711.321C711.468 0.813326 711.761 0.739994 712.201 0.739994C714.108 0.739994 715.795 0.813326 717.261 0.959991C718.875 1.10666 720.415 1.39999 721.881 1.83999C722.468 1.98666 722.981 2.13332 723.421 2.27999C724.008 2.27999 724.595 2.42666 725.181 2.71999C725.768 3.16 726.868 3.82 728.481 4.7C730.095 5.57999 730.975 6.31333 731.121 6.89999L730.241 7.77999L729.361 6.68C728.481 6.23999 727.675 5.72666 726.941 5.13999C726.208 4.40666 725.328 3.96666 724.301 3.81999C722.981 3.37999 721.735 3.15999 720.561 3.15999C718.801 3.15999 716.968 3.45332 715.061 4.03999C713.301 4.47999 711.541 4.84666 709.781 5.13999L705.601 5.58L701.861 7.56L701.201 7.33999C700.761 7.63333 699.735 7.92666 698.121 8.21999C696.655 8.51333 695.995 8.87999 696.141 9.31999C695.555 9.31999 695.261 9.24666 695.261 9.09999C693.501 10.1267 692.108 11.1533 691.081 12.18C690.055 13.2067 688.588 14.2333 686.681 15.26C685.801 15.7 684.335 16.14 682.281 16.58C680.375 17.02 678.835 17.3867 677.661 17.68C676.781 19 675.241 20.1 673.041 20.98C670.988 21.7133 669.301 22.52 667.981 23.4C658.008 30.5867 648.768 38.2133 640.261 46.28C631.755 54.2 623.395 63.5867 615.181 74.44L605.281 87.86C604.988 88.3 604.548 88.74 603.961 89.18C603.375 89.4733 602.935 89.84 602.641 90.28L602.201 91.82C597.215 98.5667 593.621 103.627 591.421 107C589.221 110.373 587.755 112.573 587.021 113.6L580.421 122.84L578.441 126.14L576.681 127.68L575.581 130.32C575.288 130.613 574.408 131.933 572.941 134.28C571.621 136.48 570.228 138.753 568.761 141.1C567.295 143.447 566.268 144.987 565.681 145.72C564.215 147.04 563.481 147.773 563.481 147.92C563.628 148.067 562.895 148.873 561.281 150.34C560.841 150.78 560.475 151.293 560.181 151.88C559.888 152.613 559.448 153.2 558.861 153.64L558.201 154.52C557.321 155.547 556.075 156.427 554.461 157.16C552.848 158.04 551.821 158.48 551.381 158.48ZM587.305 166.18L583.785 165.74H583.345C582.758 166.033 581.438 166.033 579.385 165.74C577.332 165.447 576.012 165.227 575.425 165.08L573.885 164.64V164.86C573.592 164.86 573.298 164.787 573.005 164.64C572.565 164.493 572.198 164.347 571.905 164.2C570.878 163.907 569.925 163.613 569.045 163.32C568.165 163.173 567.285 162.807 566.405 162.22L564.205 160.9C563.912 160.313 563.252 159.507 562.225 158.48C561.198 157.6 560.612 156.94 560.465 156.5L561.345 156.06L561.785 156.94C562.372 157.527 562.958 158.113 563.545 158.7C563.985 159.287 564.498 159.8 565.085 160.24C566.552 161.267 568.238 161.78 570.145 161.78C572.052 161.78 573.885 161.853 575.645 162C576.232 162 576.745 162 577.185 162C577.625 162.147 578.138 162.22 578.725 162.22L581.805 161.56L582.245 161.78C582.392 161.633 582.758 161.56 583.345 161.56C584.078 161.56 584.738 161.56 585.325 161.56C585.912 161.56 586.205 161.487 586.205 161.34L586.645 161.56C588.112 160.973 589.652 160.533 591.265 160.24C592.878 160.093 594.418 159.873 595.885 159.58C596.618 159.287 597.352 158.993 598.085 158.7C598.818 158.407 599.625 158.26 600.505 158.26C601.238 157.527 602.412 157.087 604.025 156.94C605.785 156.793 607.178 156.427 608.205 155.84L609.085 155.4V153.86L610.845 148.14C610.992 148.287 611.065 148.433 611.065 148.58C611.212 148.727 611.358 148.8 611.505 148.8C611.798 148.8 613.045 148.653 615.245 148.36C617.445 148.067 618.692 147.92 618.985 147.92H628.005L631.525 145.94C632.405 145.5 633.578 144.62 635.045 143.3C636.658 141.833 638.198 140.44 639.665 139.12C641.278 137.653 642.452 136.7 643.185 136.26C645.678 134.06 647.585 132.52 648.905 131.64C650.225 130.76 651.398 129.953 652.425 129.22C653.452 128.34 654.698 127.093 656.165 125.48C657.778 123.867 659.978 121.373 662.765 118C664.085 116.533 665.625 114.553 667.385 112.06C669.145 109.567 670.905 107.073 672.665 104.58C674.572 101.94 676.112 99.96 677.285 98.64C680.218 96.2933 682.345 94.24 683.665 92.48C684.985 90.5733 685.938 88.8133 686.525 87.2C687.258 85.5867 688.065 83.9 688.945 82.14C689.972 80.38 691.585 78.4 693.785 76.2C694.225 75.76 694.885 74.5867 695.765 72.68C696.792 70.6267 697.745 68.6467 698.625 66.74C699.652 64.8333 700.238 63.88 700.385 63.88C700.678 63.44 701.485 62.2667 702.805 60.36C704.272 58.4533 705.812 56.3267 707.425 53.98C709.185 51.4867 710.798 49.2867 712.265 47.38C713.732 45.4733 714.538 44.3 714.685 43.86L719.085 35.28L723.045 28.46C722.458 28.46 722.092 28.46 721.945 28.46C721.945 28.3133 721.652 28.24 721.065 28.24C719.892 28.24 719.085 28.3133 718.645 28.46C718.352 28.46 717.618 28.46 716.445 28.46C715.858 28.46 715.345 28.3867 714.905 28.24C714.465 28.0933 713.952 27.9467 713.365 27.8C712.925 28.24 712.485 28.46 712.045 28.46C711.752 28.46 711.385 28.3867 710.945 28.24C710.652 28.0933 710.358 28.02 710.065 28.02L709.625 28.68H707.645C706.618 28.68 705.445 28.7533 704.125 28.9C702.952 28.9 702.292 29.12 702.145 29.56C701.705 29.4133 701.265 29.4133 700.825 29.56C700.385 29.56 699.945 29.4867 699.505 29.34C698.918 30.22 697.745 30.8067 695.985 31.1C694.225 31.2467 692.538 31.3933 690.925 31.54C689.458 31.6867 688.578 32.1267 688.285 32.86C681.392 34.62 674.278 38.36 666.945 44.08C659.758 49.8 653.452 56.9867 648.025 65.64C642.745 74.1467 639.372 83.68 637.905 94.24C637.758 96 637.685 97.8333 637.685 99.74C637.832 101.647 637.832 103.04 637.685 103.92C637.685 104.213 637.612 104.36 637.465 104.36C637.025 104.067 636.732 103.553 636.585 102.82C636.585 101.94 636.365 101.5 635.925 101.5L635.265 101.94C634.532 101.207 634.165 99.8867 634.165 97.98C634.165 97.2467 634.165 96.5133 634.165 95.78C634.312 94.9 634.458 94.1667 634.605 93.58C635.632 86.2467 637.465 78.6933 640.105 70.92C642.745 63 646.192 56.4733 650.445 51.34C651.618 49.7267 652.938 48.3333 654.405 47.16C655.872 45.9867 657.265 44.74 658.585 43.42C658.732 43.2733 659.245 42.8333 660.125 42.1C661.005 41.3667 661.885 40.6333 662.765 39.9C663.792 39.02 664.305 38.5067 664.305 38.36C665.478 37.7733 667.165 36.7467 669.365 35.28C671.712 33.6667 674.058 32.2 676.405 30.88C678.898 29.56 680.732 29.0467 681.905 29.34L685.865 29.56C686.305 28.68 687.698 27.8733 690.045 27.14C692.538 26.26 695.252 25.5267 698.185 24.94C701.265 24.2067 704.052 23.6933 706.545 23.4C709.038 23.1067 710.725 23.0333 711.605 23.18V22.96C711.898 22.6667 712.412 22.52 713.145 22.52C713.732 22.52 714.318 22.6667 714.905 22.96C715.638 22.52 716.298 22.3 716.885 22.3C717.325 22.3 717.765 22.3733 718.205 22.52C718.645 22.52 719.085 22.5933 719.525 22.74C719.672 22.5933 719.965 22.52 720.405 22.52C720.845 22.52 721.358 22.6667 721.945 22.96C722.532 23.1067 723.045 23.2533 723.485 23.4C723.925 22.96 724.292 22.74 724.585 22.74C724.878 22.74 725.172 22.8133 725.465 22.96C725.905 23.1067 726.272 23.2533 726.565 23.4C726.712 23.2533 727.005 23.18 727.445 23.18H728.765C729.645 21.86 730.525 21.0533 731.405 20.76C733.605 20.0267 735.732 19.66 737.785 19.66C739.398 19.66 740.792 19.9533 741.965 20.54C743.138 20.98 743.652 21.86 743.505 23.18C745.412 23.18 747.318 23.2533 749.225 23.4C751.132 23.4 752.012 23.5467 751.865 23.84C752.012 23.84 753.038 24.06 754.945 24.5C756.852 24.94 757.805 26.1133 757.805 28.02C757.805 29.4867 756.998 31.1 755.385 32.86C754.505 33.74 753.185 33.8133 751.425 33.08C749.665 32.2 747.905 31.6133 746.145 31.32L746.805 29.78L745.925 29.56L745.485 30.88C745.192 30.5867 744.825 30.44 744.385 30.44L743.285 29.56L742.625 30.22L741.085 30V30.22C739.618 33.0067 737.052 36.6733 733.385 41.22C729.718 45.62 726.198 50.68 722.825 56.4C719.892 61.24 717.545 65.1267 715.785 68.06C714.172 70.8467 712.778 73.1933 711.605 75.1C710.578 77.0067 709.405 78.9133 708.085 80.82C706.765 82.58 705.078 84.78 703.025 87.42C700.972 90.06 698.185 93.58 694.665 97.98L692.465 100.18L690.265 103.26L688.505 104.8L682.345 112.94L678.825 116.9C678.238 117.633 676.772 119.1 674.425 121.3C672.078 123.5 669.952 125.26 668.045 126.58C665.698 128.633 663.645 130.173 661.885 131.2C660.272 132.227 658.438 133.547 656.385 135.16C653.012 137.8 650.518 139.56 648.905 140.44C647.292 141.173 645.972 141.687 644.945 141.98C643.918 142.127 642.818 142.493 641.645 143.08C640.472 143.52 638.638 144.767 636.145 146.82L634.825 147.92H636.365C636.512 147.92 637.685 147.993 639.885 148.14C642.232 148.14 645.018 148.14 648.245 148.14C651.618 148.14 654.992 148.213 658.365 148.36C661.738 148.36 664.525 148.433 666.725 148.58C669.072 148.58 670.318 148.58 670.465 148.58C670.758 148.58 670.978 148.653 671.125 148.8C671.125 148.653 671.198 148.58 671.345 148.58C671.492 148.58 672.152 148.58 673.325 148.58C674.498 148.58 675.745 148.653 677.065 148.8C678.385 148.8 679.118 148.8 679.265 148.8C680.145 148.8 681.098 148.873 682.125 149.02C683.298 149.02 684.252 149.02 684.985 149.02C685.132 149.02 685.205 149.167 685.205 149.46C685.352 149.607 685.498 149.68 685.645 149.68H690.265C690.118 149.827 689.825 150.193 689.385 150.78C688.945 151.367 688.725 151.66 688.725 151.66C688.578 151.66 688.432 151.587 688.285 151.44C688.285 151.293 688.138 151.22 687.845 151.22C687.698 151.22 687.258 151.293 686.525 151.44C685.938 151.733 685.352 151.88 684.765 151.88C684.618 152.027 684.545 152.173 684.545 152.32C684.398 152.32 684.252 152.247 684.105 152.1C684.105 151.953 683.958 151.88 683.665 151.88C682.785 151.88 681.685 152.1 680.365 152.54C680.365 152.54 680.292 152.613 680.145 152.76C680.145 152.907 680.145 153.127 680.145 153.42C679.412 153.42 678.458 153.347 677.285 153.2C676.258 153.2 675.745 153.2 675.745 153.2L674.425 153.64C674.425 153.64 673.838 153.713 672.665 153.86C671.638 154.007 670.538 154.153 669.365 154.3C668.192 154.447 667.532 154.593 667.385 154.74C667.238 154.74 667.092 154.667 666.945 154.52C666.798 154.373 666.578 154.3 666.285 154.3H666.065C665.918 154.3 664.672 154.373 662.325 154.52C660.125 154.813 657.338 155.033 653.965 155.18C650.738 155.327 647.438 155.473 644.065 155.62C640.838 155.913 638.052 156.133 635.705 156.28C633.505 156.573 632.332 156.72 632.185 156.72L619.645 157.16C619.352 157.307 618.985 157.38 618.545 157.38L615.245 159.14L611.945 160.24L606.885 162C606.298 162.147 605.638 162.293 604.905 162.44C604.172 162.733 603.438 162.88 602.705 162.88C602.265 163.027 601.238 163.32 599.625 163.76C598.012 164.2 596.912 164.42 596.325 164.42L590.165 165.96C589.725 165.96 589.285 165.96 588.845 165.96C588.258 165.96 587.745 166.033 587.305 166.18ZM673.105 149.02H673.765C673.912 149.02 673.618 149.02 672.885 149.02C672.298 148.873 671.858 148.8 671.565 148.8C671.858 148.8 672.152 148.873 672.445 149.02C672.738 149.02 672.958 149.02 673.105 149.02ZM849.576 182.68L851.116 181.14C851.702 179.967 852.436 178.867 853.316 177.84C854.196 176.813 854.782 175.787 855.076 174.76C855.222 174.32 855.296 173.88 855.296 173.44C855.442 173.147 855.516 172.853 855.516 172.56C855.516 170.947 855.002 169.627 853.976 168.6C852.949 167.573 852.069 166.547 851.336 165.52C851.042 165.227 850.822 164.86 850.676 164.42C850.529 163.98 850.309 163.54 850.016 163.1L846.496 162.22L846.936 161.34H846.716C845.982 161.34 845.322 160.973 844.736 160.24C844.296 159.507 843.782 159.36 843.196 159.8C843.196 159.36 843.269 159.067 843.416 158.92C842.096 158.773 840.849 158.773 839.676 158.92C838.649 159.067 837.549 159.14 836.376 159.14C835.789 159.14 835.202 159.067 834.616 158.92C834.029 158.92 833.442 158.847 832.856 158.7C831.976 158.407 831.022 157.747 829.996 156.72C829.116 155.84 828.382 155.107 827.796 154.52C827.356 154.667 826.916 154.74 826.476 154.74C826.182 154.887 825.816 154.96 825.376 154.96C823.909 154.96 822.589 154.667 821.416 154.08C820.242 153.493 819.069 153.127 817.896 152.98C814.229 152.833 809.462 152.833 803.596 152.98C797.876 153.273 792.082 153.493 786.216 153.64C780.349 153.933 775.509 154.153 771.696 154.3L765.756 155.18C759.156 156.06 753.729 157.013 749.476 158.04C745.369 159.067 741.336 160.167 737.376 161.34C733.416 162.513 728.356 163.833 722.196 165.3C719.262 165.593 716.842 165.3 714.936 164.42C713.176 163.687 712.296 162.807 712.296 161.78C712.296 160.753 713.396 160.02 715.596 159.58C716.182 159.433 717.796 158.993 720.436 158.26C723.076 157.673 725.789 157.013 728.576 156.28C731.509 155.693 733.562 155.327 734.736 155.18L741.996 154.08C741.702 153.787 741.482 153.64 741.336 153.64C740.749 153.2 740.309 152.687 740.016 152.1C739.722 151.513 739.356 150.927 738.916 150.34C737.449 148.287 736.349 146.747 735.616 145.72C734.882 144.693 734.516 142.86 734.516 140.22C734.516 137.433 735.029 134.427 736.056 131.2C737.082 127.827 738.182 124.967 739.356 122.62C739.649 122.033 740.089 121.227 740.676 120.2C741.409 119.027 741.776 118.22 741.776 117.78H742.216C741.922 118.807 741.482 119.76 740.896 120.64C740.309 121.373 740.016 122.327 740.016 123.5H740.236V123.28C740.822 122.84 741.849 121.593 743.316 119.54C744.782 117.487 745.516 116.167 745.516 115.58L745.296 115.36H744.856C744.856 115.947 744.636 116.46 744.196 116.9C743.902 116.313 743.756 115.873 743.756 115.58C743.756 114.553 744.122 113.673 744.856 112.94C745.736 112.06 746.322 111.253 746.616 110.52V108.98C747.642 108.247 748.522 107.073 749.256 105.46C749.989 103.7 750.796 102.307 751.676 101.28C751.969 100.84 752.409 100.547 752.996 100.4C753.582 100.107 754.022 99.6667 754.316 99.08L752.996 96.44L753.436 88.96C753.876 89.1067 754.169 89.3267 754.316 89.62C754.462 89.7667 754.829 89.84 755.416 89.84C755.709 89.84 756.369 89.7667 757.396 89.62C758.569 89.4733 759.889 89.3267 761.356 89.18C763.409 86.8333 765.316 84.4867 767.076 82.14C768.982 79.6467 771.036 77.3 773.236 75.1C773.822 74.5133 774.409 74 774.996 73.56C775.729 73.12 776.389 72.6067 776.976 72.02L785.556 63.88C788.342 61.3867 791.056 58.82 793.696 56.18C796.336 53.3933 799.122 51.0467 802.056 49.14C802.789 48.5533 803.522 48.04 804.256 47.6C805.136 47.16 805.869 46.72 806.456 46.28L822.736 35.5H822.516V34.62H822.956L823.176 34.4L821.416 33.52L820.976 34.84C820.682 34.6933 820.242 34.3267 819.656 33.74C818.629 33.5933 817.676 33.52 816.796 33.52C815.916 33.3733 814.962 33.08 813.936 32.64C813.642 32.9333 813.422 33.08 813.276 33.08C812.542 33.08 811.882 32.7133 811.296 31.98C810.709 31.1 810.122 30.5867 809.536 30.44C808.949 31.6133 808.289 32.0533 807.556 31.76L807.776 30H807.116L806.896 31.32C806.602 31.0267 806.309 30.88 806.016 30.88L804.916 30L804.476 30.66H803.156L803.376 29.12H803.156V29.34C802.422 29.9267 801.542 30.22 800.516 30.22H799.416C798.536 30.22 797.509 30.0733 796.336 29.78L796.116 28.68C795.969 28.8267 795.602 28.9 795.016 28.9L794.796 28.68L794.356 29.78C793.329 29.4867 792.522 29.4133 791.936 29.56C791.496 29.56 790.542 29.56 789.076 29.56C788.049 29.56 786.949 29.4133 785.776 29.12C784.602 28.8267 783.429 28.68 782.256 28.68C781.522 28.68 780.789 28.6067 780.056 28.46C779.469 28.3133 778.809 28.1667 778.076 28.02C777.636 28.6067 777.049 28.9 776.316 28.9C775.876 28.9 775.069 28.7533 773.896 28.46L773.676 29.34H773.236C772.649 29.34 771.329 29.56 769.276 30C767.222 30.2933 766.122 30.7333 765.976 31.32C765.389 31.32 764.802 31.3933 764.216 31.54C763.776 31.6867 763.262 31.6867 762.676 31.54C762.089 32.5667 760.696 33.3733 758.496 33.96C756.296 34.5467 754.169 35.06 752.116 35.5C750.062 35.94 748.962 36.6 748.816 37.48C742.802 39.3867 736.789 42.6133 730.776 47.16C724.762 51.56 719.262 57.06 714.276 63.66C709.436 70.1133 705.549 77.3733 702.616 85.44C699.682 93.5067 698.216 102.087 698.216 111.18C698.216 113.087 698.436 115.067 698.876 117.12C699.316 119.027 699.536 120.42 699.536 121.3C699.536 121.74 699.389 121.96 699.096 121.96C698.509 121.52 698.142 120.86 697.996 119.98C697.849 119.1 697.482 118.66 696.896 118.66L696.236 119.32C695.209 118.44 694.622 117.047 694.476 115.14C694.182 113.087 694.036 111.327 694.036 109.86C694.182 104.287 695.062 98.5667 696.676 92.7C698.289 86.6867 700.416 80.9667 703.056 75.54C705.696 70.1133 708.409 65.3467 711.196 61.24C712.516 59.3333 713.909 57.6467 715.376 56.18C716.842 54.7133 718.309 53.1733 719.776 51.56C720.069 51.2667 720.656 50.68 721.536 49.8C722.562 48.92 723.516 48.04 724.396 47.16C725.422 46.28 725.936 45.7667 725.936 45.62C727.256 44.8867 729.162 43.5667 731.656 41.66C734.149 39.7533 736.716 37.9933 739.356 36.38C741.996 34.62 744.049 33.8133 745.516 33.96V33.74C745.956 32.86 747.496 31.9067 750.136 30.88C752.922 29.7067 756.076 28.6067 759.596 27.58C763.116 26.5533 766.342 25.7467 769.276 25.16C772.209 24.5733 774.189 24.3533 775.216 24.5V24.28C775.509 23.9867 776.096 23.84 776.976 23.84C777.269 23.84 777.636 23.84 778.076 23.84C778.516 23.84 778.882 23.9133 779.176 24.06C780.056 23.4733 780.789 23.18 781.376 23.18C781.816 23.18 782.256 23.2533 782.696 23.4C783.282 23.4 783.869 23.4 784.456 23.4C784.749 23.2533 785.116 23.18 785.556 23.18C786.289 23.18 786.949 23.2533 787.536 23.4C788.269 23.5467 788.929 23.6933 789.516 23.84C789.809 23.4 790.176 23.18 790.616 23.18C790.909 23.18 791.276 23.2533 791.716 23.4C792.302 23.5467 792.669 23.6933 792.816 23.84C793.109 23.5467 793.476 23.4 793.916 23.4H794.356C794.942 23.4 795.529 23.5467 796.116 23.84C796.702 23.9867 797.289 24.1333 797.876 24.28L798.096 23.4C800.442 23.84 802.936 24.3533 805.576 24.94C808.362 25.5267 810.929 25.7467 813.276 25.6C813.569 25.6 814.229 25.7467 815.256 26.04C816.282 26.3333 816.796 26.7 816.796 27.14C816.796 27.14 816.869 27.0667 817.016 26.92C817.162 26.7733 817.309 26.7 817.456 26.7C817.896 26.8467 818.702 27.0667 819.876 27.36C821.196 27.5067 821.856 27.7267 821.856 28.02C821.856 28.02 821.929 28.02 822.076 28.02C822.369 27.8733 822.589 27.8 822.736 27.8H823.176C824.202 27.8 825.229 28.0933 826.256 28.68C827.282 29.12 828.309 29.4867 829.336 29.78L829.996 29.12C830.289 29.2667 830.582 29.4133 830.876 29.56C831.169 29.7067 831.536 29.8533 831.976 30C834.469 28.68 836.889 27.5067 839.236 26.48C841.582 25.3067 843.196 24.72 844.076 24.72C844.809 24.72 845.542 24.5 846.276 24.06C847.009 23.62 847.229 23.1067 846.936 22.52C846.496 21.4933 847.009 20.6867 848.476 20.1C850.089 19.5133 851.849 19 853.756 18.56C855.662 18.12 856.836 17.68 857.276 17.24C858.009 16.5067 859.329 15.9933 861.236 15.7C863.142 15.26 865.196 14.9667 867.396 14.82C869.596 14.5267 871.356 14.38 872.676 14.38C874.436 14.38 875.902 14.6733 877.076 15.26C878.249 15.8467 879.422 16.7267 880.596 17.9C881.769 18.9267 883.382 20.2467 885.436 21.86C887.636 23.4733 889.616 25.16 891.376 26.92C893.136 28.68 894.016 30.3667 894.016 31.98C894.016 33.3 893.282 33.96 891.816 33.96C890.642 33.96 889.836 32.7867 889.396 30.44C888.222 26.6267 884.996 24.72 879.716 24.72C877.956 24.72 875.829 25.38 873.336 26.7C870.989 27.8733 868.789 29.12 866.736 30.44C864.682 31.6133 863.142 32.2 862.116 32.2L861.676 32.86C860.942 32.86 860.429 32.9333 860.136 33.08C860.282 33.6667 860.502 33.96 860.796 33.96C861.236 33.96 861.602 33.96 861.896 33.96H862.556L862.776 35.06C862.776 34.9133 862.849 34.9133 862.996 35.06V33.96C863.289 34.1067 863.582 34.3267 863.876 34.62C864.169 34.9133 864.462 35.1333 864.756 35.28C864.756 35.1333 864.756 35.06 864.756 35.06C864.902 35.06 864.976 35.06 864.976 35.06C865.122 35.06 865.196 35.06 865.196 35.06C865.196 34.9133 865.269 34.84 865.416 34.84C865.856 34.84 866.149 35.06 866.296 35.5C866.589 35.7933 866.956 36.0133 867.396 36.16V36.38L867.616 35.94L869.156 35.5C869.742 35.6467 870.109 35.72 870.256 35.72C870.549 35.5733 870.989 35.5733 871.576 35.72V36.82H873.556C874.582 36.82 875.316 36.9667 875.756 37.26C876.342 37.4067 877.149 37.6267 878.176 37.92C879.056 38.0667 879.496 38.2867 879.496 38.58C879.642 38.8733 879.862 39.0933 880.156 39.24V39.02C880.889 38.58 881.696 38.36 882.576 38.36C884.336 38.2133 886.022 38.36 887.636 38.8C889.396 39.24 891.156 39.6067 892.916 39.9C893.209 39.6067 893.576 39.5333 894.016 39.68C894.602 39.8267 895.116 39.8267 895.556 39.68C897.902 39.5333 900.689 39.0933 903.916 38.36C907.289 37.6267 910.589 36.6 913.816 35.28C917.042 33.8133 919.609 32.1267 921.516 30.22C922.102 29.6333 922.616 28.9733 923.056 28.24C923.642 27.36 924.302 26.92 925.036 26.92C924.156 31.6133 921.736 35.72 917.776 39.24C913.962 42.76 909.782 45.4733 905.236 47.38C900.689 49.2867 896.802 50.3867 893.576 50.68C892.989 50.68 892.256 50.68 891.376 50.68C890.642 50.5333 889.909 50.3867 889.176 50.24H887.636C886.902 50.24 886.096 50.24 885.216 50.24C884.482 50.0933 883.749 49.9467 883.016 49.8C883.016 49.8 882.942 49.8 882.796 49.8C882.649 49.6533 882.576 49.5067 882.576 49.36H882.136C881.989 49.5067 881.622 49.58 881.036 49.58C877.369 49.8733 873.702 49.36 870.036 48.04C866.516 46.72 862.849 45.9133 859.036 45.62L858.816 45.4H858.596C858.449 44.96 858.009 44.6667 857.276 44.52C856.689 44.2267 856.249 44.08 855.956 44.08H855.076C854.929 44.08 853.976 44.0067 852.216 43.86C850.602 43.5667 849.062 43.2733 847.596 42.98C846.129 42.6867 845.396 42.32 845.396 41.88L844.296 41.66C841.949 42.98 839.602 44.3 837.256 45.62C834.909 46.94 832.562 48.4067 830.216 50.02C829.629 50.3133 829.042 50.7533 828.456 51.34C828.016 51.78 827.429 52.22 826.696 52.66L821.196 55.74C821.049 55.74 820.242 56.2533 818.776 57.28C817.456 58.3067 816.136 59.3333 814.816 60.36C813.642 61.3867 813.056 61.9 813.056 61.9C812.176 62.34 810.269 63.8067 807.336 66.3C804.549 68.6467 801.396 71.36 797.876 74.44C794.502 77.52 791.422 80.38 788.636 83.02C785.849 85.66 784.089 87.4933 783.356 88.52L794.356 88.74C794.942 88.74 795.896 88.5933 797.216 88.3C798.536 87.86 799.489 87.64 800.076 87.64C800.516 87.64 801.469 87.7133 802.936 87.86C804.402 88.0067 805.356 88.08 805.796 88.08H806.896C807.336 88.08 808.289 88.0067 809.756 87.86C811.369 87.5667 812.469 87.42 813.056 87.42C813.349 87.42 814.082 87.4933 815.256 87.64C816.429 87.7867 817.382 87.86 818.116 87.86C819.729 87.86 821.562 87.9333 823.616 88.08C825.816 88.08 827.722 88.1533 829.336 88.3C829.629 88.3 829.849 88.4467 829.996 88.74C830.142 88.8867 830.509 88.96 831.096 88.96C831.536 88.96 832.489 88.96 833.956 88.96C835.569 88.96 837.109 89.0333 838.576 89.18C840.189 89.18 841.142 89.18 841.436 89.18C842.169 89.18 842.829 89.0333 843.416 88.74C843.416 89.0333 843.636 89.4 844.076 89.84C844.662 89.5467 845.322 89.4 846.056 89.4C846.936 89.2533 847.742 89.1067 848.476 88.96C848.476 88.96 848.549 89.0333 848.696 89.18C848.842 89.3267 848.916 89.4733 848.916 89.62C847.156 90.06 845.029 90.5 842.536 90.94C840.042 91.38 838.576 91.6 838.136 91.6C837.696 91.6 837.402 91.5267 837.256 91.38C837.109 91.0867 836.816 90.94 836.376 90.94C835.936 90.94 835.129 91.0867 833.956 91.38C832.782 91.6733 831.682 91.82 830.656 91.82C830.362 91.9667 830.216 92.1867 830.216 92.48C829.922 92.48 829.556 92.4067 829.116 92.26C828.822 91.9667 828.456 91.82 828.016 91.82C827.722 91.82 826.989 91.8933 825.816 92.04C824.642 92.1867 823.469 92.4067 822.296 92.7C822.002 92.7 821.856 93.0667 821.856 93.8C820.389 93.8 818.556 93.8 816.356 93.8C814.156 93.6533 813.056 93.58 813.056 93.58L810.636 94.24C810.636 94.24 810.342 94.3133 809.756 94.46C809.169 94.6067 808.656 94.8267 808.216 95.12C807.922 95.12 807.556 95.0467 807.116 94.9C806.676 94.7533 806.236 94.68 805.796 94.68C805.356 94.68 803.889 94.9 801.396 95.34C798.902 95.6333 797.069 95.9267 795.896 96.22C795.456 96.3667 794.942 96.5867 794.356 96.88C793.916 97.1733 793.402 97.32 792.816 97.32H785.776L773.456 100.18C767.882 107.073 762.822 113.893 758.276 120.64C753.876 127.24 750.282 135.087 747.496 144.18C747.202 145.207 747.129 146.307 747.276 147.48C747.422 148.653 746.982 149.753 745.956 150.78C746.542 151.66 746.689 152.54 746.396 153.42L762.016 150.78C763.629 150.487 765.242 150.267 766.856 150.12C768.616 149.827 770.302 149.533 771.916 149.24C774.849 148.653 778.442 148.067 782.696 147.48C787.096 146.747 791.422 146.16 795.676 145.72C800.076 145.133 803.522 144.767 806.016 144.62C806.896 144.473 808.362 144.327 810.416 144.18C812.616 143.887 813.862 143.887 814.156 144.18L819.216 146.82H819.436C820.169 146.82 820.902 146.453 821.636 145.72C822.516 144.987 823.322 144.62 824.056 144.62C825.229 144.767 826.329 144.913 827.356 145.06C828.529 145.06 829.629 145.207 830.656 145.5C831.389 145.647 832.196 145.793 833.076 145.94C834.102 145.94 834.836 146.233 835.276 146.82C836.009 146.82 837.256 147.113 839.016 147.7C840.922 148.14 842.022 148.58 842.316 149.02L849.356 150.78C849.796 150.927 850.162 151.147 850.456 151.44C850.749 151.88 851.116 152.173 851.556 152.32L853.096 155.18L853.536 155.62C854.562 155.327 855.516 155.987 856.396 157.6C857.276 159.36 857.716 160.607 857.716 161.34V162.88L857.936 162.66C858.082 162.807 858.156 163.173 858.156 163.76C858.156 164.347 858.156 164.933 858.156 165.52C858.302 166.107 858.376 166.693 858.376 167.28C858.376 168.307 858.156 169.627 857.716 171.24L856.836 174.32C856.249 175.2 855.296 176.593 853.976 178.5C852.802 180.407 851.849 181.727 851.116 182.46L849.576 182.68ZM882.71 167.94C878.603 166.62 874.937 164.86 871.71 162.66C868.483 160.46 865.917 158.333 864.01 156.28C862.103 154.227 861.077 152.907 860.93 152.32L859.83 148.14C859.39 146.967 858.95 145.867 858.51 144.84C858.07 143.667 857.923 142.347 858.07 140.88C858.95 135.307 861.077 130.247 864.45 125.7C867.97 121.007 871.417 116.387 874.79 111.84C878.017 107.733 882.05 104.213 886.89 101.28C891.877 98.3467 896.423 95.2667 900.53 92.04C901.997 90.8667 903.317 89.7667 904.49 88.74C905.81 87.5667 907.277 86.6867 908.89 86.1L911.09 85.22L911.31 85.44C910.283 86.6133 909.11 87.64 907.79 88.52C906.617 89.4 905.443 90.28 904.27 91.16L902.73 92.92L899.65 94.9L896.79 97.98C895.47 99.4467 894.15 100.84 892.83 102.16C891.657 103.48 890.483 104.873 889.31 106.34L887.33 108.76C885.863 110.52 884.543 112.353 883.37 114.26C882.343 116.167 881.243 118.073 880.07 119.98C879.483 121.3 878.75 122.547 877.87 123.72C876.99 124.893 876.257 126.14 875.67 127.46L871.71 137.14L869.29 141.98C869.143 142.713 868.997 143.593 868.85 144.62C868.85 145.5 868.85 146.38 868.85 147.26C868.85 149.167 869.143 150.927 869.73 152.54C870.317 154.153 871.563 155.033 873.47 155.18C874.057 155.473 874.717 155.62 875.45 155.62C876.183 155.767 876.917 155.84 877.65 155.84C878.823 155.84 879.85 155.767 880.73 155.62C881.61 155.62 882.343 155.62 882.93 155.62C882.93 155.62 883.883 155.4 885.79 154.96C887.697 154.52 889.897 153.933 892.39 153.2C894.883 152.613 896.863 152.027 898.33 151.44C898.623 150.853 899.943 149.973 902.29 148.8C904.637 147.48 906.177 146.527 906.91 145.94C909.257 144.473 911.53 143.007 913.73 141.54C916.077 140.073 918.277 138.46 920.33 136.7C920.77 136.407 921.21 135.967 921.65 135.38C922.09 134.793 922.603 134.353 923.19 134.06L928.03 130.98C928.177 130.98 929.35 130.32 931.55 129C933.897 127.533 936.463 125.553 939.25 123.06C942.183 120.42 944.677 117.267 946.73 113.6C948.93 109.933 950.03 105.827 950.03 101.28C950.03 98.4933 949.517 95.6333 948.49 92.7C941.45 83.46 936.17 76.4933 932.65 71.8C929.13 67.1067 927.37 63.1467 927.37 59.92C927.37 58.7467 927.737 57.4267 928.47 55.96C929.937 53.0267 930.817 50.9 931.11 49.58C931.55 48.1133 932.943 46.3533 935.29 44.3C936.023 43.86 936.683 42.76 937.27 41C938.003 39.24 938.663 38.14 939.25 37.7C941.743 35.6467 943.503 33.8867 944.53 32.42C945.703 30.9533 947.463 29.2667 949.81 27.36C951.423 26.04 953.257 24.94 955.31 24.06C957.363 23.18 959.27 22.2267 961.03 21.2C963.083 20.0267 964.403 19 964.99 18.12C965.577 17.24 967.043 16.36 969.39 15.48C970.71 14.8933 972.543 14.3067 974.89 13.72C977.383 12.9867 979.877 12.4 982.37 11.96C984.863 11.3733 986.77 11.08 988.09 11.08C989.85 11.08 991.83 11.52 994.03 12.4C996.377 13.28 998.283 14.3067 999.75 15.48C1002.1 17.3867 1004.3 19.88 1006.35 22.96C1008.4 25.8933 1009.43 28.3867 1009.43 30.44C1009.43 31.76 1008.99 32.9333 1008.11 33.96C1007.38 34.84 1006.5 35.6467 1005.47 36.38C1004.3 37.4067 1003.2 38.4333 1002.17 39.46C1001.29 40.4867 1000.12 41.3667 998.65 42.1C998.21 43.2733 997.037 44.52 995.13 45.84C993.37 47.0133 991.757 47.6733 990.29 47.82V48.04C989.703 48.6267 988.897 49.4333 987.87 50.46C986.843 51.4867 985.89 52.1467 985.01 52.44C984.863 52.44 984.717 52.5133 984.57 52.66C984.57 52.66 984.497 52.66 984.35 52.66L983.47 53.98H983.91C983.91 54.1267 983.47 54.3467 982.59 54.64C981.71 54.9333 981.05 55.08 980.61 55.08C980.023 56.5467 979.143 57.3533 977.97 57.5C976.943 57.5 975.843 57.8667 974.67 58.6C974.523 58.7467 974.157 59.04 973.57 59.48C973.13 59.7733 972.763 59.92 972.47 59.92H972.25V59.48C974.743 57.5733 977.09 55.52 979.29 53.32C981.637 51.12 983.983 49.0667 986.33 47.16C987.503 46.1333 989.337 44.4467 991.83 42.1C994.47 39.6067 996.817 36.9667 998.87 34.18C1001.07 31.3933 1002.17 29.12 1002.17 27.36C1002.17 25.8933 1001.29 24.72 999.53 23.84C997.917 22.8133 996.45 22.3 995.13 22.3C991.757 22.3 989.19 22.8133 987.43 23.84C985.67 24.8667 984.277 25.38 983.25 25.38C982.957 25.9667 981.637 26.92 979.29 28.24C976.943 29.4133 975.403 30.2933 974.67 30.88C972.323 32.3467 970.05 33.8867 967.85 35.5C965.65 36.9667 963.523 38.5067 961.47 40.12C960.883 40.56 960.37 41.0733 959.93 41.66C959.49 42.1 958.977 42.4667 958.39 42.76C957.95 43.0533 956.997 44.08 955.53 45.84C954.21 47.4533 952.67 49.36 950.91 51.56C949.297 53.76 947.83 55.8133 946.51 57.72C945.337 59.48 944.603 60.58 944.31 61.02C942.843 63.8067 942.11 66.52 942.11 69.16C942.11 72.68 943.063 76.1267 944.97 79.5C947.023 82.7267 949.223 85.9533 951.57 89.18C954.063 92.4067 956.043 95.78 957.51 99.3L958.83 103.92C959.123 105.387 959.27 106.633 959.27 107.66C959.417 108.54 959.49 109.567 959.49 110.74C959.49 111.327 959.49 111.913 959.49 112.5C959.49 113.087 959.417 113.747 959.27 114.48C959.123 115.36 958.83 116.68 958.39 118.44C957.95 120.2 957.73 121.447 957.73 122.18C957.437 123.06 956.777 124.6 955.75 126.8C954.723 128.853 953.403 130.76 951.79 132.52C951.35 132.96 950.983 133.18 950.69 133.18C950.25 133.18 949.883 132.887 949.59 132.3C949.443 131.567 949.223 131.053 948.93 130.76C948.783 130.32 948.417 130.54 947.83 131.42C946.803 132.887 946.143 133.767 945.85 134.06C945.557 134.353 945.337 134.573 945.19 134.72C945.043 134.72 944.677 135.16 944.09 136.04C943.503 136.92 942.403 138.68 940.79 141.32C939.617 141.467 938.883 142.053 938.59 143.08C938.297 143.96 937.783 144.767 937.05 145.5C934.997 147.113 933.603 147.993 932.87 148.14C932.283 148.287 931.623 148.433 930.89 148.58C930.303 148.58 928.983 149.387 926.93 151C925.317 152.173 923.483 153.2 921.43 154.08C919.377 154.96 917.47 155.913 915.71 156.94C913.803 158.26 911.677 159.36 909.33 160.24C907.13 161.267 904.857 162.22 902.51 163.1C900.897 164.127 898.11 165.227 894.15 166.4C890.337 167.573 887.183 168.16 884.69 168.16C883.663 168.16 883.003 168.087 882.71 167.94Z" fill="#FFFF00"/>
</svg>
